<svg width="17" height="13" viewBox="0 0 17 13" fill="none" xmlns="http://www.w3.org/2000/svg">
<path d="M1.86999 0.124146H15.12C16.37 0.124146 17 0.714145 17 1.91415V10.3341C17 11.5241 16.37 12.1241 15.12 12.1241H1.86999C0.61999 12.1241 -0.0100098 11.5241 -0.0100098 10.3341V1.91415C-0.0100098 0.714145 0.61999 0.124146 1.86999 0.124146ZM8.48999 8.72415L15.23 3.19415C15.47 2.99415 15.66 2.53415 15.36 2.12415C15.07 1.71415 14.54 1.70415 14.19 1.95415L8.48999 5.81415L2.79999 1.95415C2.44999 1.70415 1.91999 1.71415 1.62999 2.12415C1.32999 2.53415 1.51999 2.99415 1.75999 3.19415L8.48999 8.72415Z" fill="#F9F9FF"/>
</svg>
