<svg width="7" height="22" viewBox="0 0 7 22" fill="none" xmlns="http://www.w3.org/2000/svg">
<path d="M0.192383 19.3848C0.192383 18.9588 0.365066 18.5424 0.688595 18.1882C1.01212 17.834 1.47197 17.5579 2.00998 17.3949C2.54799 17.2319 3.14 17.1892 3.71114 17.2723C4.28229 17.3554 4.80693 17.5606 5.2187 17.8618C5.63047 18.163 5.9109 18.5468 6.0245 18.9646C6.13811 19.3824 6.0798 19.8155 5.85695 20.2091C5.6341 20.6026 5.25672 20.939 4.77252 21.1757C4.28833 21.4124 3.71907 21.5387 3.13673 21.5387C2.35584 21.5387 1.60693 21.3118 1.05476 20.9078C0.50259 20.5039 0.192383 19.9561 0.192383 19.3848H0.192383ZM0.192383 10.7693C0.192383 10.3434 0.365066 9.92692 0.688595 9.57272C1.01212 9.21852 1.47197 8.94245 2.00998 8.77943C2.54799 8.61641 3.14 8.57375 3.71114 8.65686C4.28229 8.73997 4.80693 8.94511 5.2187 9.24633C5.63047 9.54755 5.9109 9.93134 6.0245 10.3491C6.13811 10.767 6.0798 11.2 5.85695 11.5936C5.6341 11.9872 5.25672 12.3236 4.77252 12.5602C4.28833 12.7969 3.71907 12.9232 3.13673 12.9232C2.35584 12.9232 1.60693 12.6963 1.05476 12.2924C0.50259 11.8884 0.192383 11.3406 0.192383 10.7693H0.192383ZM0.192383 2.15387C0.192383 1.72787 0.365066 1.31145 0.688595 0.957244C1.01212 0.603042 1.47197 0.326976 2.00998 0.163954C2.54799 0.000933241 3.14 -0.0417206 3.71114 0.041387C4.28229 0.124494 4.80693 0.329631 5.2187 0.630855C5.63047 0.932079 5.9109 1.31586 6.0245 1.73367C6.13811 2.15148 6.0798 2.58455 5.85695 2.97812C5.6341 3.37169 5.25672 3.70808 4.77252 3.94475C4.28833 4.18142 3.71907 4.30774 3.13673 4.30774C2.35584 4.30774 1.60693 4.08081 1.05476 3.67689C0.50259 3.27296 0.192383 2.72511 0.192383 2.15387H0.192383Z" fill="black"/>
</svg>
