<svg width="16" height="17" viewBox="0 0 16 17" fill="none" xmlns="http://www.w3.org/2000/svg">
<g clip-path="url(#clip0_62_122)">
<path fill-rule="evenodd" clip-rule="evenodd" d="M8.00001 0.820679C7.31001 0.820679 6.15701 1.08568 5.07201 1.38068C3.96201 1.68068 2.84301 2.03568 2.18501 2.25068C1.9099 2.34153 1.666 2.50814 1.48132 2.73138C1.29665 2.95462 1.17869 3.22542 1.14101 3.51268C0.545005 7.98968 1.92801 11.3077 3.60601 13.5027C4.31759 14.4416 5.16603 15.2685 6.12301 15.9557C6.50901 16.2287 6.86701 16.4377 7.17101 16.5807C7.45101 16.7127 7.75201 16.8207 8.00001 16.8207C8.24801 16.8207 8.54801 16.7127 8.82901 16.5807C9.19549 16.4026 9.5461 16.1935 9.87701 15.9557C10.834 15.2685 11.6824 14.4417 12.394 13.5027C14.072 11.3077 15.455 7.98968 14.859 3.51268C14.8214 3.22528 14.7035 2.95432 14.5188 2.73091C14.3341 2.5075 14.0902 2.34071 13.815 2.24968C12.8598 1.93649 11.8972 1.64641 10.928 1.37968C9.84301 1.08668 8.69001 0.820679 8.00001 0.820679ZM8.00001 5.82068C8.35424 5.82015 8.69724 5.94501 8.96824 6.17314C9.23924 6.40127 9.42076 6.71795 9.48065 7.06709C9.54054 7.41623 9.47493 7.7753 9.29544 8.0807C9.11595 8.3861 8.83417 8.61813 8.50001 8.73568L8.88501 10.7257C8.89901 10.7981 8.89684 10.8726 8.87865 10.9441C8.86045 11.0155 8.82668 11.0821 8.77976 11.1389C8.73284 11.1958 8.67392 11.2416 8.60723 11.273C8.54054 11.3044 8.46773 11.3207 8.39401 11.3207H7.60601C7.53237 11.3205 7.45967 11.3042 7.3931 11.2727C7.32653 11.2412 7.26774 11.1954 7.22093 11.1385C7.17412 11.0817 7.14044 11.0152 7.1223 10.9438C7.10416 10.8725 7.10201 10.798 7.11601 10.7257L7.50001 8.73568C7.16584 8.61813 6.88406 8.3861 6.70457 8.0807C6.52508 7.7753 6.45947 7.41623 6.51936 7.06709C6.57925 6.71795 6.76077 6.40127 7.03177 6.17314C7.30277 5.94501 7.64577 5.82015 8.00001 5.82068Z" fill="#F9F9FF"/>
</g>
<defs>
<clipPath id="clip0_62_122">
<rect width="16" height="16" fill="white" transform="translate(0 0.820679)"/>
</clipPath>
</defs>
</svg>
