<svg width="24" height="24" viewBox="0 0 24 24" fill="none" xmlns="http://www.w3.org/2000/svg">
<g clip-path="url(#clip0_317_59)">
<path d="M11.9997 0.84668C5.39104 0.84668 0.0150146 6.22343 0.0150146 12.8321C0.0150146 16.9841 2.11689 20.7817 5.63774 22.9901C5.98799 23.2121 6.45074 23.1044 6.67127 22.7534C6.89179 22.4024 6.78564 21.9397 6.43464 21.72C5.16676 20.9242 4.11339 19.8907 3.30751 18.6993L4.09389 18.2452C4.45274 18.0378 4.57576 17.5796 4.36839 17.2207C4.16026 16.8611 3.70126 16.7389 3.34389 16.9462L2.55639 17.4007C1.98451 16.2169 1.63537 14.9212 1.54199 13.5705H2.37674C2.79112 13.5705 3.12674 13.2348 3.12674 12.8205C3.12674 12.4061 2.79112 12.0705 2.37674 12.0705H1.54574C1.64512 10.695 2.00924 9.39145 2.59012 8.21283L3.34387 8.64783C3.45756 8.7138 3.58671 8.74848 3.71816 8.74833C3.97726 8.74833 4.22926 8.6137 4.36839 8.37333C4.57574 8.01445 4.45276 7.55583 4.09389 7.3488L3.34764 6.9183C4.10026 5.82068 5.05539 4.8723 6.15977 4.1287L6.58202 4.85995C6.72112 5.10108 6.97312 5.23495 7.23224 5.23495C7.36369 5.2351 7.49282 5.20042 7.60651 5.13445C7.96537 4.92708 8.08839 4.46883 7.88102 4.10995L7.46024 3.3817C8.61639 2.82408 9.89024 2.4757 11.2331 2.3782V3.3127C11.2331 3.72708 11.5687 4.0627 11.9831 4.0627C12.3975 4.0627 12.7331 3.72708 12.7331 3.3127V2.3752C14.1064 2.47083 15.408 2.82968 16.5859 3.40528L16.179 4.10955C15.9716 4.46841 16.0946 4.92705 16.4535 5.13405C16.5672 5.20003 16.6963 5.2347 16.8278 5.23455C17.0869 5.23455 17.3389 5.10068 17.478 4.85955L17.883 4.15793C18.978 4.90347 19.9231 5.84811 20.6692 6.94268L19.9669 7.34843C19.608 7.55578 19.485 8.01405 19.6924 8.37288C19.8315 8.61403 20.0835 8.74788 20.3426 8.74788C20.4701 8.74788 20.5991 8.71566 20.7169 8.64741L21.423 8.23978C21.9994 9.41803 22.3594 10.72 22.4554 12.0937H21.6319C21.2175 12.0937 20.8819 12.4293 20.8819 12.8437C20.8819 13.2581 21.2175 13.5937 21.6319 13.5937H22.455C22.3602 14.9268 22.0193 16.2055 21.459 17.3744L20.7165 16.9458C20.3584 16.7384 19.8983 16.8622 19.692 17.2203C19.4847 17.5792 19.6077 18.0378 19.9665 18.2448L20.7113 18.6749C19.8886 19.8993 18.8025 20.9576 17.4919 21.7646C17.1391 21.9821 17.0299 22.4444 17.2467 22.7966C17.3888 23.0264 17.6341 23.1532 17.8861 23.1532C18.0247 23.1532 18.1607 23.1146 18.2787 23.0418C21.8521 20.8409 23.9851 17.0234 23.9851 12.8317C23.9851 6.22343 18.6083 0.84668 11.9997 0.84668H11.9997ZM17.5339 10.4936C17.8924 10.2862 18.0154 9.82798 17.8084 9.4691C17.6014 9.1106 17.1424 8.9876 16.7839 9.19498L12.7099 11.547C12.4924 11.424 12.2445 11.3479 11.9768 11.3479C11.1499 11.3479 10.4805 12.018 10.4805 12.8433C10.4805 13.6695 11.1503 14.3396 11.9768 14.3396C12.8036 14.3396 13.473 13.6695 13.473 12.8433C13.473 12.8418 13.4726 12.84 13.4726 12.8384L17.5339 10.4936Z" fill="white"/>
</g>
<defs>
<clipPath id="clip0_317_59">
<rect width="24" height="24" fill="white"/>
</clipPath>
</defs>
</svg>
